# AST/ASF file generated using VICON BodyLanguage
# -----------------------------------------------
:version 1.10
:name VICON
:units
  mass 1.0
  length 0.45
  angle deg
:documentation
   .ast/.asf automatically generated from VICON data using
   VICON BodyBuilder and BodyLanguage model FoxedUp or BRILLIANT.MOD
:root
   order TX TY TZ RX RY RZ
   axis XYZ
   position 0 0 0  
   orientation 0 0 0 
:bonedata
  begin
     id 1 
     name lhipjoint
     direction 0.567149 -0.783011 0.255413 
     length 2.28399 
     axis 0 0 0  XYZ
  end
  begin
     id 2 
     name lfemur
     direction 0.34202 -0.939693 0  
     length 7.34031  
     axis 0 0 20  XYZ
    dof rx ry rz
    limits (-160.0 20.0)
           (-70.0 70.0)
           (-60.0 70.0)
  end
  begin
     id 3 
     name ltibia
     direction 0.34202 -0.939693 0   
     length 6.9833   
     axis 0 0 20   XYZ
    dof rx
    limits (-10.0 170.0)
  end
  begin
     id 4 
     name lfoot
     direction 0.136498 -0.375025 0.91691   
     length 2.33665   
     axis -90 7.62852e-016 20   XYZ
    dof rx rz
    limits (-45.0 90.0)
           (-70.0 20.0)
  end
  begin
     id 5 
     name ltoes
     direction 1.5367e-011 -4.21617e-011 1   
     length 1.15039   
     axis -90 7.62852e-016 20   XYZ
    dof rx
    limits (-90.0 20.0)
  end
  begin
     id 6 
     name rhipjoint
     direction -0.602854 -0.758518 0.247423   
     length 2.35775  
     axis 0 0 0  XYZ 
  end
  begin
     id 7 
     name rfemur
     direction -0.34202 -0.939693 0   
     length 7.43932   
     axis 0 0 -20   XYZ
    dof rx ry rz
    limits (-160.0 20.0)
           (-70.0 70.0)
           (-70.0 60.0)
  end
  begin
     id 8 
     name rtibia
     direction -0.34202 -0.939693 0   
     length 7.11893   
     axis 0 0 -20   XYZ
    dof rx
    limits (-10.0 170.0)
 end
 begin
     id 9 
     name rfoot
     direction -0.131771 -0.362037 0.922803   
     length 2.53019  
     axis -90 -7.62852e-016 -20   XYZ
    dof rx rz
    limits (-45.0 90.0)
           (-20.0 70.0)
  end
  begin
     id 10 
     name rtoes
     direction -1.53733e-011 -4.21932e-011 1   
     length 1.24596   
     axis -90 -7.62852e-016 -20   XYZ
    dof rx
    limits (-90.0 20.0)
  end
  begin
     id 11 
     name lowerback
     direction 0.0235427 0.999023 -0.0374125   
     length 2.21768   
     axis 0 0 0   XYZ
    dof rx ry rz
    limits (-20.0 45.0)
           (-30.0 30.0)
           (-30.0 30.0)
  end
  begin
     id 12 
     name upperback
     direction 0.0302156 0.996818 -0.073759   
     length 2.20352   
     axis 0 0 0   XYZ
    dof rx ry rz
    limits (-20.0 45.0)
           (-30.0 30.0)
           (-30.0 30.0)
  end
  begin
     id 13 
     name thorax
     direction 0.0187169 0.998235 -0.0563532   
     length 2.22103   
     axis 0 0 0   XYZ
    dof rx ry rz
    limits (-20.0 45.0)
           (-30.0 30.0)
           (-30.0 30.0)
  end
  begin
     id 14 
     name lowerneck
     direction -0.119528 0.987423 0.103481   
     length 1.72948   
     axis 0 0 0   XYZ
    dof rx ry rz
    limits (-20.0 45.0)
           (-30.0 30.0)
           (-30.0 30.0)
  end
  begin
     id 15 
     name upperneck
     direction 0.248049 0.963095 -0.104496   
     length 1.74979   
     axis 0 0 0   XYZ
    dof rx ry rz
    limits (-20.0 45.0)
           (-30.0 30.0)
           (-30.0 30.0)
  end
  begin
     id 16
     name head
     direction 0.0903589 0.994284 -0.056876  
     length 1.78268  
     axis 0 0 0   XYZ
    dof rx ry rz
    limits (-20.0 45.0)
           (-30.0 30.0)
           (-30.0 30.0)
  end
  begin
     id 17 
     name lclavicle
     direction 0.946008 0.242039 -0.215608  
     length 3.80783  
     axis 0 0 0   XYZ
    dof ry rz
    limits (-20.0 10.0)
           (0.0 20.0)
  end
  begin
     id 18 
     name lhumerus
     direction 1 -4.48991e-011 -2.25695e-027   
     length 4.83125   
     axis 180 -30 -90   XYZ
    dof rx ry rz
    limits (-60.0 90.0)
           (-90.0 90.0)
           (-90.0 90.0)
  end
  begin
     id 19
     name lradius
     direction 0.999991 0.00366712 -0.00211721   
     length 3.00391   
     axis 180 -30 -90   XYZ
    dof rx
    limits (-10.0 170.0)
  end
  begin
     id 20
     name lwrist
     direction 0.999991 0.00393016 -0.00141978   
     length 1.50195   
     axis -1.00488e-014 90 90   XYZ
    dof ry
    limits (-180.0 0.0)
 end
  begin
     id 21 
     name lhand
     direction 1 -4.49123e-011 2.72098e-026   
     length 1.2717   
     axis -1.73687e-014 90 90   XYZ
    dof rx rz
    limits (-90.0 90.0)
           (-45.0 45.0)
  end
  begin
     id 22 
     name lfingers
     direction 1 -4.48678e-011 5.4479e-026   
     length 1.02528   
     axis -3.47372e-014 90 90   XYZ
    dof rx
    limits (0.0 90.0)
  end
  begin
     id 23
     name lthumb
     direction 0.707107 -6.34851e-011 0.707107   
     length 1.4721   
     axis -90 45 -1.62303e-014   XYZ
    dof rx rz
    limits (-45.0 45.0)
           (-45.0 45.0)
  end
  begin
     id 24 
     name rclavicle
     direction -0.981723 0.189447 -0.0181673   
     length 3.74989  
     axis 0 0 0   XYZ 
    dof ry rz
    limits (-10.0 20.0)
           (-20.0 0.0)
  end
  begin
     id 25 
     name rhumerus
     direction -1 -4.48985e-011 2.38206e-027  
     length 4.61118   
     axis 180 30 90   XYZ
    dof rx ry rz
    limits (-90.0 60.0)
           (-90.0 90.0)
           (-90.0 90.0)
  end
  begin
     id 26 
     name rradius
     direction -1 -4.48977e-011 7.41019e-027   
     length 2.91491   
     axis 180 30 90   XYZ
    dof rx
    limits (-10.0 170.0)
  end
  begin
     id 27 
     name rwrist
     direction -1 -4.48549e-011 1.3624e-026   
     length 1.45745   
     axis -1.00488e-014 -90 -90   XYZ
    dof ry
    limits (-180.0 0.0)
  end
  begin
     id 28
     name rhand
     direction -1 -4.49107e-011 2.72109e-026   
     length 1.30769   
     axis -1.73687e-014 -90 -90   XYZ
    dof rx rz
    limits (-90.0 90.0)
           (-45.0 45.0)
  end
  begin
     id 29
     name rfingers
     direction -1 -4.48919e-011 5.44468e-026   
     length 1.05429   
     axis -3.47372e-014 -90 -90   XYZ
    dof rx
    limits (0.0 90.0)
  end
  begin
     id 30
     name rthumb
     direction -0.707107 -6.35315e-011 0.707107   
     length 1.51376   
     axis -90 -45 1.62303e-014   XYZ
    dof rx rz
    limits (-45.0 45.0)
           (-45.0 45.0)
  end
:hierarchy
  begin
    root lhipjoint rhipjoint lowerback
    lhipjoint lfemur
    lfemur ltibia
    ltibia lfoot
    lfoot ltoes
    rhipjoint rfemur
    rfemur rtibia
    rtibia rfoot
    rfoot rtoes
    lowerback upperback
    upperback thorax
    thorax lowerneck lclavicle rclavicle
    lowerneck upperneck
    upperneck head
    lclavicle lhumerus
    lhumerus lradius
    lradius lwrist
    lwrist lhand lthumb
    lhand lfingers
    rclavicle rhumerus
    rhumerus rradius
    rradius rwrist
    rwrist rhand rthumb
    rhand rfingers
  end

#!OML:ASF X:\für Bonn\!DataBase\2005_08_11_Bastian_Final\c3d\Bastian.ASF
:FULLY-SPECIFIED
:DEGREES
16
root -21.5488 17.5784 -0.527784 138.645 -79.2084 -146.278
lowerback 5.25994 -2.67679 3.24356
upperback 5.15971 -3.79822 3.95576
thorax 2.45514 -1.99157 2.3766
lowerneck -11.0058 0.392899 0.565399
upperneck -3.29034 0.254353 0.893031
head 0.80491 0.0539966 0.190937
rclavicle 3.18055e-014 -3.89618e-014
rhumerus -43.7543 3.85008 -83.8331
rradius 47.7794
rwrist -5.19234
rhand -8.96201 -6.61201
rfingers 7.12502
rthumb 16.983 -35.8896
lclavicle 3.18055e-014 -3.89618e-014
lhumerus -24.5222 5.13929 88.7119
lradius 10.4251
lwrist -0.908647
lhand -9.125 -7.55922
lfingers 7.12502
lthumb 16.8261 21.7318
rfemur 1.14962 3.52678 25.8209
rtibia 27.7745
rfoot -12.3758 -11.7493
rtoes -11.5304
lfemur 2.74757 4.12161 -12.5459
ltibia 24.1802
lfoot -11.8715 -2.03203
ltoes -11.9911
17
root -21.5471 17.579 -0.523038 138.589 -79.2227 -146.212
lowerback 5.27434 -2.63465 3.25195
upperback 5.16144 -3.7399 3.94307
thorax 2.44628 -1.96156 2.35774
lowerneck -11.0624 0.372217 0.570588
upperneck -3.2793 0.225528 0.844486
head 0.818135 0.0387106 0.174008
rclavicle 3.52843e-015 4.77083e-015
rhumerus -43.0578 4.1911 -83.6521
rradius 49.1543
rwrist -4.71113
rhand -9.05074 -6.76067
rfingers 7.12502
rthumb 16.8976 -36.0455
lclavicle 3.52843e-015 4.77083e-015
lhumerus -24.4156 3.59764 89.2704
lradius 11.204
lwrist 0.821278
lhand -9.05546 -7.50019
lfingers 7.12502
lthumb 16.8931 21.7851
rfemur 1.15038 3.51572 25.8012
rtibia 27.7441
rfoot -12.3606 -11.7416
rtoes -11.5756
lfemur 2.71874 4.10329 -12.5679
ltibia 24.1924
lfoot -11.8693 -2.02103
ltoes -11.9944
18
root -21.5448 17.5798 -0.519246 138.53 -79.232 -146.154
lowerback 5.29676 -2.59864 3.24241
upperback 5.17325 -3.69143 3.93708
thorax 2.44525 -1.93753 2.35621
lowerneck -11.1331 0.345897 0.547461
upperneck -3.26229 0.192157 0.81368
head 0.835647 0.0217108 0.167136
rclavicle 2.16178e-014 -5.56597e-015
rhumerus -42.2927 4.64811 -83.5104
rradius 50.6653
rwrist -4.38857
rhand -9.07551 -6.93141
rfingers 7.12502
rthumb 16.8737 -36.2183
lclavicle 2.16178e-014 -5.56597e-015
lhumerus -24.3307 2.22489 89.7579
lradius 11.9874
lwrist 2.32707
lhand -9.00464 -7.51276
lfingers 7.12502
lthumb 16.942 21.7683
rfemur 1.16597 3.58045 25.8099
rtibia 27.7205
rfoot -12.3544 -11.803
rtoes -11.4874
lfemur 2.70665 4.07916 -12.5781
ltibia 24.192
lfoot -11.8453 -2.02089
ltoes -11.8968
19
root -21.5437 17.5801 -0.514126 138.464 -79.2017 -146.092
lowerback 5.33079 -2.55756 3.25902
upperback 5.16691 -3.63366 3.9427
thorax 2.41798 -1.9084 2.35293
lowerneck -11.1403 0.325383 0.5385
upperneck -3.26957 0.166512 0.745555
head 0.834579 0.00775888 0.146492
rclavicle -2.62396e-014 7.95139e-015
rhumerus -41.5182 5.1599 -83.3628
rradius 52.3483
rwrist -4.01206
rhand -8.83266 -7.26758
rfingers 7.12502
rthumb 17.1075 -36.5344
lclavicle -2.62396e-014 7.95139e-015
lhumerus -24.2756 1.27559 90.0906
lradius 12.7015
lwrist 3.38322
lhand -8.93096 -7.60663
lfingers 7.12502
lthumb 17.0129 21.6684
rfemur 1.18068 3.63149 25.8322
rtibia 27.6992
rfoot -12.3328 -11.8259
rtoes -11.5384
lfemur 2.71403 4.01175 -12.5857
ltibia 24.1844
lfoot -11.8448 -1.91321
ltoes -11.8824
20
root -21.5431 17.5807 -0.509422 138.7 -79.1813 -146.318
lowerback 5.32919 -2.49488 3.25683
upperback 5.16815 -3.54683 3.89391
thorax 2.41505 -1.86287 2.30078
lowerneck -11.1859 0.298873 0.614831
upperneck -3.24305 0.122337 0.675688
head 0.850948 -0.0159209 0.110361
rclavicle 7.88181e-014 -5.32743e-014
rhumerus -40.6534 5.57406 -83.2341
rradius 54.1501
rwrist -3.50009
rhand -8.27638 -7.60845
rfingers 7.12502
rthumb 17.6429 -36.828
lclavicle 7.88181e-014 -5.32743e-014
lhumerus -24.2394 0.128771 90.3985
lradius 13.4682
lwrist 4.59923
lhand -8.89251 -7.70422
lfingers 7.12502
lthumb 17.0499 21.5676
rfemur 1.17741 3.69919 25.7999
rtibia 27.6813
rfoot -12.3399 -11.8328
rtoes -11.4613
lfemur 2.70875 3.99243 -12.6357
ltibia 24.1741
lfoot -11.8487 -1.85753
ltoes -11.7225
21
root -21.5437 17.5817 -0.504443 138.906 -79.1146 -146.519
lowerback 5.332 -2.43038 3.26159
upperback 5.15821 -3.45811 3.87929
thorax 2.40012 -1.81744 2.28054
lowerneck -11.1775 0.273082 0.621243
upperneck -3.2305 0.0888533 0.617477
head 0.853586 -0.0332454 0.0898968
rclavicle -2.13694e-014 -2.70347e-014
rhumerus -39.7778 6.06674 -83.0662
rradius 56.0256
rwrist -3.00571
rhand -7.53252 -7.76562
rfingers 7.12502
rthumb 18.3586 -36.9193
lclavicle -2.13694e-014 -2.70347e-014
lhumerus -24.2527 -0.760008 90.6753
lradius 14.2407
lwrist 5.68151
lhand -8.84066 -7.81835
lfingers 7.12502
lthumb 17.0998 21.4491
rfemur 1.17751 3.81717 25.8104
rtibia 27.6684
rfoot -12.3297 -11.8611
rtoes -11.4203
lfemur 2.72295 3.98966 -12.6551
ltibia 24.158
lfoot -11.8635 -1.7715
ltoes -11.7387
